<?xml version="1.0" encoding="UTF-8" standalone="no"?>
<svg
   viewBox="0 0 8 8"
   version="1.1"
   id="svg64"
   sodipodi:docname="82.svg"
   inkscape:version="1.3.2 (091e20ef0f, 2023-11-25, custom)"
   xmlns:inkscape="http://www.inkscape.org/namespaces/inkscape"
   xmlns:sodipodi="http://sodipodi.sourceforge.net/DTD/sodipodi-0.dtd"
   xmlns="http://www.w3.org/2000/svg"
   xmlns:svg="http://www.w3.org/2000/svg">
  <defs
     id="defs64" />
  <sodipodi:namedview
     id="namedview64"
     pagecolor="#ffffff"
     bordercolor="#000000"
     borderopacity="0.25"
     inkscape:showpageshadow="2"
     inkscape:pageopacity="0.0"
     inkscape:pagecheckerboard="0"
     inkscape:deskcolor="#d1d1d1"
     inkscape:zoom="100.125"
     inkscape:cx="1.8127341"
     inkscape:cy="4"
     inkscape:window-width="1920"
     inkscape:window-height="1005"
     inkscape:window-x="0"
     inkscape:window-y="0"
     inkscape:window-maximized="1"
     inkscape:current-layer="svg64" />
  <path
     d="M0 0 H1 V1 H0 Z"
     fill="#66bcec"
     id="path1"
     style="fill:#191919;fill-opacity:1" />
  <path
     d="M1 0 H2 V1 H1 Z"
     fill="#44d9d6"
     id="path2"
     style="fill:#191919;fill-opacity:1" />
  <path
     d="M2 0 H3 V1 H2 Z"
     fill="#44d9d6"
     id="path3"
     style="fill:#191919;fill-opacity:1" />
  <path
     d="M3 0 H4 V1 H3 Z"
     fill="#44d9d6"
     id="path4"
     style="fill:#191919;fill-opacity:1" />
  <path
     d="M4 0 H5 V1 H4 Z"
     fill="#44d9d6"
     id="path5"
     style="fill:#191919;fill-opacity:1" />
  <path
     d="M5 0 H6 V1 H5 Z"
     fill="#44d9d6"
     id="path6"
     style="fill:#191919;fill-opacity:1" />
  <path
     d="M6 0 H7 V1 H6 Z"
     fill="#44d9d6"
     id="path7"
     style="fill:#191919;fill-opacity:1" />
  <path
     d="M7 0 H8 V1 H7 Z"
     fill="#66bcec"
     id="path8"
     style="fill:#191919;fill-opacity:1" />
  <path
     d="M0 1 H1 V2 H0 Z"
     fill="#66cbec"
     id="path9"
     style="fill:#191919;fill-opacity:1" />
  <path
     d="M1 1 H2 V2 H1 Z"
     fill="#181953"
     id="path10"
     style="fill:#2a2800;fill-opacity:1" />
  <path
     d="M2 1 H3 V2 H2 Z"
     fill="#171f4f"
     id="path11"
     style="fill:#2a2800;fill-opacity:1" />
  <path
     d="M3 1 H4 V2 H3 Z"
     fill="#192158"
     id="path12"
     style="fill:#2a2800;fill-opacity:1" />
  <path
     d="M4 1 H5 V2 H4 Z"
     fill="#192158"
     id="path13"
     style="fill:#2a2800;fill-opacity:1" />
  <path
     d="M5 1 H6 V2 H5 Z"
     fill="#171f4f"
     id="path14"
     style="fill:#2a2800;fill-opacity:1" />
  <path
     d="M6 1 H7 V2 H6 Z"
     fill="#181953"
     id="path15"
     style="fill:#2a2800;fill-opacity:1" />
  <path
     d="M7 1 H8 V2 H7 Z"
     fill="#66cbec"
     id="path16"
     style="fill:#191919;fill-opacity:1" />
  <path
     d="M0 2 H1 V3 H0 Z"
     fill="#44d9d6"
     id="path17"
     style="fill:#121212;fill-opacity:1" />
  <path
     d="M1 2 H2 V3 H1 Z"
     fill="#171f4f"
     id="path18"
     style="fill:#2a2800;fill-opacity:1" />
  <path
     d="M2 2 H3 V3 H2 Z"
     fill="#192158"
     id="path19"
     style="fill:#2a2800;fill-opacity:1" />
  <path
     d="M3 2 H4 V3 H3 Z"
     fill="#15265f"
     id="path20"
     style="fill:#2a2800;fill-opacity:1" />
  <path
     d="M4 2 H5 V3 H4 Z"
     fill="#15265f"
     id="path21"
     style="fill:#2a2800;fill-opacity:1" />
  <path
     d="M5 2 H6 V3 H5 Z"
     fill="#192158"
     id="path22"
     style="fill:#2a2800;fill-opacity:1" />
  <path
     d="M6 2 H7 V3 H6 Z"
     fill="#192158"
     id="path23"
     style="fill:#242300;fill-opacity:1" />
  <path
     d="M7 2 H8 V3 H7 Z"
     fill="#44d9d6"
     id="path24"
     style="fill:#121212;fill-opacity:1" />
  <path
     d="M0 3 H1 V4 H0 Z"
     fill="#44d9d6"
     id="path25"
     style="fill:#121212;fill-opacity:1" />
  <path
     d="M1 3 H2 V4 H1 Z"
     fill="#192158"
     id="path26"
     style="fill:#a4a024;fill-opacity:1" />
  <path
     d="M2 3 H3 V4 H2 Z"
     fill="#15265f"
     id="path27"
     style="fill:#fff600;fill-opacity:1" />
  <path
     d="M3 3 H4 V4 H3 Z"
     fill="#15265f"
     id="path28"
     style="fill:#2a2800;fill-opacity:1" />
  <path
     d="M4 3 H5 V4 H4 Z"
     fill="#15265f"
     id="path29"
     style="fill:#2a2800;fill-opacity:1" />
  <path
     d="M5 3 H6 V4 H5 Z"
     fill="#15265f"
     id="path30"
     style="fill:#fff600;fill-opacity:1" />
  <path
     d="M6 3 H7 V4 H6 Z"
     fill="#192158"
     id="path31"
     style="fill:#a4a024;fill-opacity:1" />
  <path
     d="M7 3 H8 V4 H7 Z"
     fill="#ff49f9"
     id="path32"
     style="fill:#121212;fill-opacity:1" />
  <path
     d="M0 4 H1 V5 H0 Z"
     fill="#44d9d6"
     id="path33"
     style="fill:#121212;fill-opacity:1" />
  <path
     d="M1 4 H2 V5 H1 Z"
     fill="#192158"
     id="path34"
     style="fill:#a4a024;fill-opacity:1" />
  <path
     d="M2 4 H3 V5 H2 Z"
     fill="#fee8f5"
     id="path35"
     style="fill:#fff600;fill-opacity:1" />
  <path
     d="M3 4 H4 V5 H3 Z"
     fill="#15265f"
     id="path36"
     style="fill:#2a2800;fill-opacity:1" />
  <path
     d="M4 4 H5 V5 H4 Z"
     fill="#15265f"
     id="path37"
     style="fill:#2a2800;fill-opacity:1" />
  <path
     d="M5 4 H6 V5 H5 Z"
     fill="#ffffff"
     id="path38"
     style="fill:#fff600;fill-opacity:1" />
  <path
     d="M6 4 H7 V5 H6 Z"
     fill="#242969"
     id="path39"
     style="fill:#a4a024;fill-opacity:1" />
  <path
     d="M7 4 H8 V5 H7 Z"
     fill="#74b5df"
     id="path40"
     style="fill:#121212;fill-opacity:1" />
  <path
     d="M0 5 H1 V6 H0 Z"
     fill="#66cbec"
     id="path41"
     style="fill:#121212;fill-opacity:1" />
  <path
     d="M1 5 H2 V6 H1 Z"
     fill="#171f4f"
     id="path42"
     style="fill:#2a2800;fill-opacity:1" />
  <path
     d="M2 5 H3 V6 H2 Z"
     fill="#ffd3ec"
     id="path43"
     style="fill:#2a2800;fill-opacity:1" />
  <path
     d="M3 5 H4 V6 H3 Z"
     fill="#15265f"
     id="path44"
     style="fill:#2a2800;fill-opacity:1" />
  <path
     d="M4 5 H5 V6 H4 Z"
     fill="#1d2864"
     id="path45"
     style="fill:#2a2800;fill-opacity:1" />
  <path
     d="M5 5 H6 V6 H5 Z"
     fill="#f1b2e0"
     id="path46"
     style="fill:#2a2800;fill-opacity:1" />
  <path
     d="M6 5 H7 V6 H6 Z"
     fill="#3f2b73"
     id="path47"
     style="fill:#2a2800;fill-opacity:1" />
  <path
     d="M7 5 H8 V6 H7 Z"
     fill="#a391e7"
     id="path48"
     style="fill:#121212;fill-opacity:1" />
  <path
     d="M0 6 H1 V7 H0 Z"
     fill="#66bcec"
     id="path49"
     style="fill:#323232;fill-opacity:1" />
  <path
     d="M1 6 H2 V7 H1 Z"
     fill="#181953"
     id="path50"
     style="fill:#2a2800;fill-opacity:1" />
  <path
     d="M2 6 H3 V7 H2 Z"
     fill="#15265f"
     id="path51"
     style="fill:#2a2800;fill-opacity:1" />
  <path
     d="M3 6 H4 V7 H3 Z"
     fill="#242969"
     id="path52"
     style="fill:#2a2800;fill-opacity:1" />
  <path
     d="M4 6 H5 V7 H4 Z"
     fill="#3f2b73"
     id="path53"
     style="fill:#2a2800;fill-opacity:1" />
  <path
     d="M5 6 H6 V7 H5 Z"
     fill="#5a2f85"
     id="path54"
     style="fill:#2a2800;fill-opacity:1" />
  <path
     d="M6 6 H7 V7 H6 Z"
     fill="#7b3499"
     id="path55"
     style="fill:#292700;fill-opacity:1" />
  <path
     d="M7 6 H8 V7 H7 Z"
     fill="#d26ef0"
     id="path56"
     style="fill:#121212;fill-opacity:1" />
  <path
     d="M0 7 H1 V8 H0 Z"
     fill="#6e9df8"
     id="path57"
     style="fill:#4b4b4b;fill-opacity:1" />
  <path
     d="M1 7 H2 V8 H1 Z"
     fill="#6dafeb"
     id="path58"
     style="fill:#4a4a4a;fill-opacity:1" />
  <path
     d="M2 7 H3 V8 H2 Z"
     fill="#d26ef0"
     id="path59"
     style="fill:#494949;fill-opacity:1" />
  <path
     d="M3 7 H4 V8 H3 Z"
     fill="#8ca4e3"
     id="path60"
     style="fill:#484848;fill-opacity:1" />
  <path
     d="M4 7 H5 V8 H4 Z"
     fill="#b191e7"
     id="path61"
     style="fill:#474747;fill-opacity:1" />
  <path
     d="M5 7 H6 V8 H5 Z"
     fill="#d26ef0"
     id="path62"
     style="fill:#464646;fill-opacity:1" />
  <path
     d="M6 7 H7 V8 H6 Z"
     fill="#e95bf5"
     id="path63"
     style="fill:#444444;fill-opacity:1" />
  <path
     d="M7 7 H8 V8 H7 Z"
     fill="#ff49f9"
     id="path64"
     style="fill:#424242;fill-opacity:1" />
</svg>
