<svg xmlns="http://www.w3.org/2000/svg" viewBox="0 0 8 8">
  <path d="M0 0 H1 V1 H0 Z" fill="#66bcec" />
  <path d="M1 0 H2 V1 H1 Z" fill="#44d9d6" />
  <path d="M2 0 H3 V1 H2 Z" fill="#44d9d6" />
  <path d="M3 0 H4 V1 H3 Z" fill="#44d9d6" />
  <path d="M4 0 H5 V1 H4 Z" fill="#44d9d6" />
  <path d="M5 0 H6 V1 H5 Z" fill="#44d9d6" />
  <path d="M6 0 H7 V1 H6 Z" fill="#44d9d6" />
  <path d="M7 0 H8 V1 H7 Z" fill="#66bcec" />
  <path d="M0 1 H1 V2 H0 Z" fill="#66cbec" />
  <path d="M1 1 H2 V2 H1 Z" fill="#181953" />
  <path d="M2 1 H3 V2 H2 Z" fill="#171f4f" />
  <path d="M3 1 H4 V2 H3 Z" fill="#192158" />
  <path d="M4 1 H5 V2 H4 Z" fill="#192158" />
  <path d="M5 1 H6 V2 H5 Z" fill="#171f4f" />
  <path d="M6 1 H7 V2 H6 Z" fill="#181953" />
  <path d="M7 1 H8 V2 H7 Z" fill="#66cbec" />
  <path d="M0 2 H1 V3 H0 Z" fill="#44d9d6" />
  <path d="M1 2 H2 V3 H1 Z" fill="#171f4f" />
  <path d="M2 2 H3 V3 H2 Z" fill="#192158" />
  <path d="M3 2 H4 V3 H3 Z" fill="#15265f" />
  <path d="M4 2 H5 V3 H4 Z" fill="#15265f" />
  <path d="M5 2 H6 V3 H5 Z" fill="#192158" />
  <path d="M6 2 H7 V3 H6 Z" fill="#192158" />
  <path d="M7 2 H8 V3 H7 Z" fill="#44d9d6" />
  <path d="M0 3 H1 V4 H0 Z" fill="#44d9d6" />
  <path d="M1 3 H2 V4 H1 Z" fill="#192158" />
  <path d="M2 3 H3 V4 H2 Z" fill="#15265f" />
  <path d="M3 3 H4 V4 H3 Z" fill="#15265f" />
  <path d="M4 3 H5 V4 H4 Z" fill="#15265f" />
  <path d="M5 3 H6 V4 H5 Z" fill="#15265f" />
  <path d="M6 3 H7 V4 H6 Z" fill="#192158" />
  <path d="M7 3 H8 V4 H7 Z" fill="#ff49f9" />
  <path d="M0 4 H1 V5 H0 Z" fill="#44d9d6" />
  <path d="M1 4 H2 V5 H1 Z" fill="#192158" />
  <path d="M2 4 H3 V5 H2 Z" fill="#fee8f5" />
  <path d="M3 4 H4 V5 H3 Z" fill="#15265f" />
  <path d="M4 4 H5 V5 H4 Z" fill="#15265f" />
  <path d="M5 4 H6 V5 H5 Z" fill="#ffffff" />
  <path d="M6 4 H7 V5 H6 Z" fill="#242969" />
  <path d="M7 4 H8 V5 H7 Z" fill="#74b5df" />
  <path d="M0 5 H1 V6 H0 Z" fill="#66cbec" />
  <path d="M1 5 H2 V6 H1 Z" fill="#171f4f" />
  <path d="M2 5 H3 V6 H2 Z" fill="#ffd3ec" />
  <path d="M3 5 H4 V6 H3 Z" fill="#15265f" />
  <path d="M4 5 H5 V6 H4 Z" fill="#1d2864" />
  <path d="M5 5 H6 V6 H5 Z" fill="#f1b2e0" />
  <path d="M6 5 H7 V6 H6 Z" fill="#3f2b73" />
  <path d="M7 5 H8 V6 H7 Z" fill="#a391e7" />
  <path d="M0 6 H1 V7 H0 Z" fill="#66bcec" />
  <path d="M1 6 H2 V7 H1 Z" fill="#181953" />
  <path d="M2 6 H3 V7 H2 Z" fill="#15265f" />
  <path d="M3 6 H4 V7 H3 Z" fill="#242969" />
  <path d="M4 6 H5 V7 H4 Z" fill="#3f2b73" />
  <path d="M5 6 H6 V7 H5 Z" fill="#5a2f85" />
  <path d="M6 6 H7 V7 H6 Z" fill="#7b3499" />
  <path d="M7 6 H8 V7 H7 Z" fill="#d26ef0" />
  <path d="M0 7 H1 V8 H0 Z" fill="#6e9df8" />
  <path d="M1 7 H2 V8 H1 Z" fill="#6dafeb" />
  <path d="M2 7 H3 V8 H2 Z" fill="#d26ef0" />
  <path d="M3 7 H4 V8 H3 Z" fill="#8ca4e3" />
  <path d="M4 7 H5 V8 H4 Z" fill="#b191e7" />
  <path d="M5 7 H6 V8 H5 Z" fill="#d26ef0" />
  <path d="M6 7 H7 V8 H6 Z" fill="#e95bf5" />
  <path d="M7 7 H8 V8 H7 Z" fill="#ff49f9" />
</svg>