<?xml version="1.0" encoding="UTF-8" standalone="no"?>
<!-- Created with Inkscape (http://www.inkscape.org/) -->

<svg
   width="108"
   height="108"
   viewBox="0 0 108 108"
   version="1.1"
   id="svg1"
   xml:space="preserve"
   inkscape:version="1.3.2 (091e20ef0f, 2023-11-25, custom)"
   sodipodi:docname="foreground.svg"
   xmlns:inkscape="http://www.inkscape.org/namespaces/inkscape"
   xmlns:sodipodi="http://sodipodi.sourceforge.net/DTD/sodipodi-0.dtd"
   xmlns="http://www.w3.org/2000/svg"
   xmlns:svg="http://www.w3.org/2000/svg"><sodipodi:namedview
     id="namedview1"
     pagecolor="#ffffff"
     bordercolor="#000000"
     borderopacity="0.25"
     inkscape:showpageshadow="2"
     inkscape:pageopacity="0.0"
     inkscape:pagecheckerboard="0"
     inkscape:deskcolor="#d1d1d1"
     inkscape:document-units="px"
     showgrid="true"
     inkscape:zoom="6.675"
     inkscape:cx="60"
     inkscape:cy="60"
     inkscape:window-width="1920"
     inkscape:window-height="1005"
     inkscape:window-x="0"
     inkscape:window-y="0"
     inkscape:window-maximized="1"
     inkscape:current-layer="layer1" /><defs
     id="defs1" /><g
     inkscape:label="Layer 1"
     inkscape:groupmode="layer"
     id="layer1"
     style="fill:#f9f9f9"
     transform="translate(-6,-6)"><path
       d="M 6,6 H 114 V 114 H 6 Z"
       fill="none"
       id="path1"
       style="fill:#000000;fill-opacity:0" /><path
       d="M 36,36 H 84 V 84 H 36 Z"
       fill="none"
       id="path1-6"
       style="fill:#333333;stroke-width:0.444445" /><g
       id="g1"
       transform="matrix(5.9375,0,0,5.9375,36.099953,36.008076)"><path
         d="M 0,0 H 1 V 1 H 0 Z"
         fill="#66bcec"
         id="path1-2" /><path
         d="M 1,0 H 2 V 1 H 1 Z"
         fill="#44d9d6"
         id="path2" /><path
         d="M 2,0 H 3 V 1 H 2 Z"
         fill="#44d9d6"
         id="path3" /><path
         d="M 3,0 H 4 V 1 H 3 Z"
         fill="#44d9d6"
         id="path4" /><path
         d="M 4,0 H 5 V 1 H 4 Z"
         fill="#44d9d6"
         id="path5" /><path
         d="M 5,0 H 6 V 1 H 5 Z"
         fill="#44d9d6"
         id="path6" /><path
         d="M 6,0 H 7 V 1 H 6 Z"
         fill="#44d9d6"
         id="path7" /><path
         d="M 7,0 H 8 V 1 H 7 Z"
         fill="#66bcec"
         id="path8" /><path
         d="M 0,1 H 1 V 2 H 0 Z"
         fill="#66cbec"
         id="path9" /><path
         d="M 1,1 H 2 V 2 H 1 Z"
         fill="#181953"
         id="path10" /><path
         d="M 2,1 H 3 V 2 H 2 Z"
         fill="#171f4f"
         id="path11" /><path
         d="M 3,1 H 4 V 2 H 3 Z"
         fill="#192158"
         id="path12" /><path
         d="M 4,1 H 5 V 2 H 4 Z"
         fill="#192158"
         id="path13" /><path
         d="M 5,1 H 6 V 2 H 5 Z"
         fill="#171f4f"
         id="path14" /><path
         d="M 6,1 H 7 V 2 H 6 Z"
         fill="#181953"
         id="path15" /><path
         d="M 7,1 H 8 V 2 H 7 Z"
         fill="#66cbec"
         id="path16" /><path
         d="M 0,2 H 1 V 3 H 0 Z"
         fill="#44d9d6"
         id="path17" /><path
         d="M 1,2 H 2 V 3 H 1 Z"
         fill="#171f4f"
         id="path18" /><path
         d="M 2,2 H 3 V 3 H 2 Z"
         fill="#192158"
         id="path19" /><path
         d="M 3,2 H 4 V 3 H 3 Z"
         fill="#15265f"
         id="path20" /><path
         d="M 4,2 H 5 V 3 H 4 Z"
         fill="#15265f"
         id="path21" /><path
         d="M 5,2 H 6 V 3 H 5 Z"
         fill="#192158"
         id="path22" /><path
         d="M 6,2 H 7 V 3 H 6 Z"
         fill="#192158"
         id="path23" /><path
         d="M 7,2 H 8 V 3 H 7 Z"
         fill="#44d9d6"
         id="path24" /><path
         d="M 0,3 H 1 V 4 H 0 Z"
         fill="#44d9d6"
         id="path25" /><path
         d="M 1,3 H 2 V 4 H 1 Z"
         fill="#192158"
         id="path26" /><path
         d="M 2,3 H 3 V 4 H 2 Z"
         fill="#15265f"
         id="path27" /><path
         d="M 3,3 H 4 V 4 H 3 Z"
         fill="#15265f"
         id="path28" /><path
         d="M 4,3 H 5 V 4 H 4 Z"
         fill="#15265f"
         id="path29" /><path
         d="M 5,3 H 6 V 4 H 5 Z"
         fill="#15265f"
         id="path30" /><path
         d="M 6,3 H 7 V 4 H 6 Z"
         fill="#192158"
         id="path31" /><path
         d="M 7,3 H 8 V 4 H 7 Z"
         fill="#ff49f9"
         id="path32" /><path
         d="M 0,4 H 1 V 5 H 0 Z"
         fill="#44d9d6"
         id="path33" /><path
         d="M 1,4 H 2 V 5 H 1 Z"
         fill="#192158"
         id="path34" /><path
         d="M 2,4 H 3 V 5 H 2 Z"
         fill="#fee8f5"
         id="path35" /><path
         d="M 3,4 H 4 V 5 H 3 Z"
         fill="#15265f"
         id="path36" /><path
         d="M 4,4 H 5 V 5 H 4 Z"
         fill="#15265f"
         id="path37" /><path
         d="M 5,4 H 6 V 5 H 5 Z"
         fill="#ffffff"
         id="path38" /><path
         d="M 6,4 H 7 V 5 H 6 Z"
         fill="#242969"
         id="path39" /><path
         d="M 7,4 H 8 V 5 H 7 Z"
         fill="#74b5df"
         id="path40" /><path
         d="M 0,5 H 1 V 6 H 0 Z"
         fill="#66cbec"
         id="path41" /><path
         d="M 1,5 H 2 V 6 H 1 Z"
         fill="#171f4f"
         id="path42" /><path
         d="M 2,5 H 3 V 6 H 2 Z"
         fill="#ffd3ec"
         id="path43" /><path
         d="M 3,5 H 4 V 6 H 3 Z"
         fill="#15265f"
         id="path44" /><path
         d="M 4,5 H 5 V 6 H 4 Z"
         fill="#1d2864"
         id="path45" /><path
         d="M 5,5 H 6 V 6 H 5 Z"
         fill="#f1b2e0"
         id="path46" /><path
         d="M 6,5 H 7 V 6 H 6 Z"
         fill="#3f2b73"
         id="path47" /><path
         d="M 7,5 H 8 V 6 H 7 Z"
         fill="#a391e7"
         id="path48" /><path
         d="M 0,6 H 1 V 7 H 0 Z"
         fill="#66bcec"
         id="path49" /><path
         d="M 1,6 H 2 V 7 H 1 Z"
         fill="#181953"
         id="path50" /><path
         d="M 2,6 H 3 V 7 H 2 Z"
         fill="#15265f"
         id="path51" /><path
         d="M 3,6 H 4 V 7 H 3 Z"
         fill="#242969"
         id="path52" /><path
         d="M 4,6 H 5 V 7 H 4 Z"
         fill="#3f2b73"
         id="path53" /><path
         d="M 5,6 H 6 V 7 H 5 Z"
         fill="#5a2f85"
         id="path54" /><path
         d="M 6,6 H 7 V 7 H 6 Z"
         fill="#7b3499"
         id="path55" /><path
         d="M 7,6 H 8 V 7 H 7 Z"
         fill="#d26ef0"
         id="path56" /><path
         d="M 0,7 H 1 V 8 H 0 Z"
         fill="#6e9df8"
         id="path57" /><path
         d="M 1,7 H 2 V 8 H 1 Z"
         fill="#6dafeb"
         id="path58" /><path
         d="M 2,7 H 3 V 8 H 2 Z"
         fill="#d26ef0"
         id="path59" /><path
         d="M 3,7 H 4 V 8 H 3 Z"
         fill="#8ca4e3"
         id="path60" /><path
         d="M 4,7 H 5 V 8 H 4 Z"
         fill="#b191e7"
         id="path61" /><path
         d="M 5,7 H 6 V 8 H 5 Z"
         fill="#d26ef0"
         id="path62" /><path
         d="M 6,7 H 7 V 8 H 6 Z"
         fill="#e95bf5"
         id="path63" /><path
         d="M 7,7 H 8 V 8 H 7 Z"
         fill="#ff49f9"
         id="path64" /></g></g></svg>
